<mxfile host="app.diagrams.net" agent="Mozilla/5.0 (Windows NT 10.0; Win64; x64) AppleWebKit/537.36 (KHTML, like Gecko) Chrome/140.0.0.0 Safari/537.36 Edg/140.0.0.0" version="28.2.5">
  <diagram name="Страница — 1" id="WOERCBQw6wBBarMW6Hgn">
    <mxGraphModel dx="1418" dy="794" grid="1" gridSize="10" guides="1" tooltips="1" connect="1" arrows="1" fold="1" page="1" pageScale="1" pageWidth="827" pageHeight="1169" math="0" shadow="0">
      <root>
        <mxCell id="0" />
        <mxCell id="1" parent="0" />
        <mxCell id="JrPyEgvt4c4RRNWMFYW3-2" value="" style="rounded=1;whiteSpace=wrap;html=1;fillColor=#f8cecc;strokeColor=light-dark(#050505, #d7817e);strokeWidth=9;" parent="1" vertex="1">
          <mxGeometry x="310" y="270" width="230" height="500" as="geometry" />
        </mxCell>
        <mxCell id="41xECsHHv5l8XDqiSjqW-1" value="" style="rounded=1;whiteSpace=wrap;html=1;strokeColor=default;fillColor=#000000;" vertex="1" parent="1">
          <mxGeometry x="365" y="270" width="120" height="20" as="geometry" />
        </mxCell>
        <mxCell id="41xECsHHv5l8XDqiSjqW-3" value="&lt;h1&gt;&lt;font style=&quot;font-size: 20px;&quot;&gt;Задачи&lt;/font&gt;&lt;/h1&gt;" style="text;html=1;align=center;verticalAlign=middle;whiteSpace=wrap;rounded=0;strokeWidth=4;" vertex="1" parent="1">
          <mxGeometry x="377.5" y="300" width="95" height="50" as="geometry" />
        </mxCell>
        <mxCell id="41xECsHHv5l8XDqiSjqW-4" value="Ввод" style="rounded=1;whiteSpace=wrap;html=1;align=left;fillColor=#f5f5f5;gradientColor=#b3b3b3;strokeColor=#666666;gradientDirection=west;" vertex="1" parent="1">
          <mxGeometry x="322.5" y="690" width="150" height="30" as="geometry" />
        </mxCell>
        <mxCell id="41xECsHHv5l8XDqiSjqW-5" value="&lt;font style=&quot;font-size: 19px;&quot;&gt;+&lt;/font&gt;" style="ellipse;whiteSpace=wrap;html=1;aspect=fixed;fillColor=#f5f5f5;gradientColor=#b3b3b3;strokeColor=#666666;gradientDirection=west;" vertex="1" parent="1">
          <mxGeometry x="490" y="690" width="30" height="30" as="geometry" />
        </mxCell>
        <mxCell id="41xECsHHv5l8XDqiSjqW-9" value="&lt;font style=&quot;font-size: 14px;&quot;&gt;Задача 1&lt;/font&gt;" style="rounded=1;whiteSpace=wrap;html=1;align=right;fillColor=#e6d0de;strokeColor=#996185;gradientColor=#d5739d;" vertex="1" parent="1">
          <mxGeometry x="332.5" y="350" width="130" height="40" as="geometry" />
        </mxCell>
        <mxCell id="41xECsHHv5l8XDqiSjqW-10" value="&lt;font style=&quot;font-size: 14px;&quot;&gt;Задача 2&lt;/font&gt;" style="rounded=1;whiteSpace=wrap;html=1;align=right;fillColor=#e6d0de;gradientColor=#d5739d;strokeColor=#996185;" vertex="1" parent="1">
          <mxGeometry x="332.5" y="400" width="130" height="40" as="geometry" />
        </mxCell>
        <mxCell id="41xECsHHv5l8XDqiSjqW-11" value="&lt;font style=&quot;font-size: 14px;&quot;&gt;Задача 3&lt;/font&gt;" style="rounded=1;whiteSpace=wrap;html=1;align=right;fillColor=#e6d0de;gradientColor=#d5739d;strokeColor=#996185;" vertex="1" parent="1">
          <mxGeometry x="332.5" y="448.5" width="130" height="40" as="geometry" />
        </mxCell>
        <mxCell id="41xECsHHv5l8XDqiSjqW-13" value="" style="ellipse;whiteSpace=wrap;html=1;aspect=fixed;" vertex="1" parent="1">
          <mxGeometry x="340" y="357.5" width="25" height="25" as="geometry" />
        </mxCell>
        <mxCell id="41xECsHHv5l8XDqiSjqW-14" value="" style="ellipse;whiteSpace=wrap;html=1;aspect=fixed;" vertex="1" parent="1">
          <mxGeometry x="340" y="407.5" width="25" height="25" as="geometry" />
        </mxCell>
        <mxCell id="41xECsHHv5l8XDqiSjqW-17" value="" style="ellipse;whiteSpace=wrap;html=1;aspect=fixed;" vertex="1" parent="1">
          <mxGeometry x="340" y="456" width="25" height="25" as="geometry" />
        </mxCell>
        <mxCell id="41xECsHHv5l8XDqiSjqW-18" value="" style="html=1;verticalLabelPosition=bottom;align=center;labelBackgroundColor=#ffffff;verticalAlign=top;strokeWidth=2;strokeColor=#b85450;shadow=0;dashed=0;shape=mxgraph.ios7.icons.flag;fillColor=#f8cecc;gradientColor=#ea6b66;" vertex="1" parent="1">
          <mxGeometry x="485" y="355" width="20" height="30" as="geometry" />
        </mxCell>
        <mxCell id="41xECsHHv5l8XDqiSjqW-19" value="" style="html=1;verticalLabelPosition=bottom;align=center;labelBackgroundColor=#ffffff;verticalAlign=top;strokeWidth=2;strokeColor=#6c8ebf;shadow=0;dashed=0;shape=mxgraph.ios7.icons.flag;fillColor=#dae8fc;gradientColor=#7ea6e0;" vertex="1" parent="1">
          <mxGeometry x="485" y="402.5" width="20" height="30" as="geometry" />
        </mxCell>
        <mxCell id="41xECsHHv5l8XDqiSjqW-20" value="" style="html=1;verticalLabelPosition=bottom;align=center;labelBackgroundColor=#ffffff;verticalAlign=top;strokeWidth=2;strokeColor=#d6b656;shadow=0;dashed=0;shape=mxgraph.ios7.icons.flag;fillColor=#fff2cc;gradientColor=#ffd966;" vertex="1" parent="1">
          <mxGeometry x="485" y="456" width="20" height="30" as="geometry" />
        </mxCell>
        <mxCell id="41xECsHHv5l8XDqiSjqW-25" value="" style="html=1;verticalLabelPosition=bottom;align=center;labelBackgroundColor=#ffffff;verticalAlign=top;strokeWidth=2;shadow=0;dashed=0;shape=mxgraph.ios7.icons.flag;" vertex="1" parent="1">
          <mxGeometry x="445" y="695" width="17.5" height="20" as="geometry" />
        </mxCell>
      </root>
    </mxGraphModel>
  </diagram>
</mxfile>
